<svg xmlns="http://www.w3.org/2000/svg" width="32" height="26" viewBox="0 0 32 26">
  <g id="Group_652" data-name="Group 652" transform="translate(-1160 -1234)">
    <g id="icons8-document_1_" data-name="icons8-document (1)" transform="translate(1154 1231)">
      <path id="Path_9" data-name="Path 9" d="M6,3V29H26V9.594l-.281-.312-6-6L19.406,3ZM8,5H18v6h6V27H8ZM20,6.438,22.563,9H20ZM11,13v2H21V13Zm0,4v2H21V17Zm0,4v2H21V21Z" transform="translate(0 0)" fill="#2151e8"/>
    </g>
    <g id="Layer_1" transform="translate(1174.5 1242.5)">
      <g id="Group_614" data-name="Group 614">
        <circle id="Ellipse_1" data-name="Ellipse 1" cx="8" cy="8" r="8" transform="translate(1.5 1.5)" fill="#2151e8"/>
        <path id="Path_756" data-name="Path 756" d="M12.741,5.5,7.247,10.994,4.5,8.247" transform="translate(0.88 1.253)" fill="none" stroke="#fff" stroke-miterlimit="10" stroke-width="2"/>
      </g>
    </g>
  </g>
</svg>
