<svg xmlns="http://www.w3.org/2000/svg" viewBox="0 0 227.56 27.2"><defs><style>.cls-1,.cls-3{isolation:isolate;}.cls-2,.cls-3{fill:#fff;}.cls-3{font-size:16px;font-family:Manrope3-Bold, Manrope3;font-weight:700;}.cls-4{opacity:0.4;}.cls-5{fill:none;stroke:#fff;stroke-linecap:round;stroke-linejoin:round;stroke-width:3px;}</style></defs><title>footerLogo</title><g id="Layer_2" data-name="Layer 2"><g id="Layer_1-2" data-name="Layer 1"><g id="Group_595" data-name="Group 595"><g id="Trajectory_Matching" data-name="Trajectory Matching" class="cls-1"><g class="cls-1"><path class="cls-2" d="M58.25,10.05H54.94V18.7H53V10.05H49.65V8.2h8.6Z"/><path class="cls-2" d="M63.62,15.14H61.4V18.7h-2V8.2h4.43a5.39,5.39,0,0,1,.87.06,3,3,0,0,1,2,1.12,3.73,3.73,0,0,1,.68,2.29A4,4,0,0,1,67,13.59a2.78,2.78,0,0,1-1.31,1.22l1.89,3.89H65.34ZM61.4,13.29h2.36a2.4,2.4,0,0,0,.67-.07,1.21,1.21,0,0,0,.78-.58,2.13,2.13,0,0,0,.23-1,2.06,2.06,0,0,0-.23-1,1.18,1.18,0,0,0-.78-.58,2.45,2.45,0,0,0-.67-.08H61.4Z"/><path class="cls-2" d="M74.83,16.51h-4l-.67,2.19h-2L71.38,8.2h3l3.2,10.5h-2Zm-.58-1.85-1.42-4.59-1.4,4.59Z"/><path class="cls-2" d="M84.15,8.2v7.63a4.28,4.28,0,0,1-.07.88,2.4,2.4,0,0,1-.28.75,2.76,2.76,0,0,1-1.15,1.1,3.6,3.6,0,0,1-1.68.36,3.15,3.15,0,0,1-2-.64,3.39,3.39,0,0,1-1.16-1.74l2-.46a1.14,1.14,0,0,0,.41.7,1.23,1.23,0,0,0,.77.29,1.25,1.25,0,0,0,.62-.18.91.91,0,0,0,.43-.46,2.07,2.07,0,0,0,.1-.46c0-.17,0-.43,0-.77v-7Z"/><path class="cls-2" d="M88.32,10.05V12.3h4v1.85h-4v2.7h4.87V18.7H86.34V8.2h6.85v1.85Z"/><path class="cls-2" d="M103.76,15.61a5.19,5.19,0,0,1-.57,1.31,4.38,4.38,0,0,1-1,1.07,4.91,4.91,0,0,1-3.12.93A5.18,5.18,0,0,1,97,18.48a4.3,4.3,0,0,1-1.61-1.28,5.92,5.92,0,0,1-1.21-3.75,5.8,5.8,0,0,1,1.19-3.78A4.39,4.39,0,0,1,97,8.41,5.09,5.09,0,0,1,99.1,8a6.44,6.44,0,0,1,1.71.22,3.87,3.87,0,0,1,1.39.73,4.41,4.41,0,0,1,1.06,1.2,5.12,5.12,0,0,1,.58,1.46l-2,.27a2.55,2.55,0,0,0-.48-1,2.59,2.59,0,0,0-2.2-1.05,3,3,0,0,0-1.27.27,2.31,2.31,0,0,0-1,.78,3.78,3.78,0,0,0-.72,2.45A4.24,4.24,0,0,0,96.94,16a2.24,2.24,0,0,0,1,.79,3.32,3.32,0,0,0,1.35.26A2.47,2.47,0,0,0,101.37,16a2.78,2.78,0,0,0,.45-.87Z"/><path class="cls-2" d="M113,10.05h-3.31V18.7h-2V10.05h-3.31V8.2H113Z"/><path class="cls-2" d="M116.16,18.22a4.7,4.7,0,0,1-1.78-1.94,6.14,6.14,0,0,1-.63-2.83,6.3,6.3,0,0,1,.62-2.83,4.77,4.77,0,0,1,1.78-1.94,5.11,5.11,0,0,1,2.69-.7,5.19,5.19,0,0,1,2.69.68,4.47,4.47,0,0,1,1.75,1.92,6.81,6.81,0,0,1,.65,2.87,6.71,6.71,0,0,1-.65,2.88,4.61,4.61,0,0,1-1.77,1.91,5.53,5.53,0,0,1-5.35,0Zm4.92-2.15a4.22,4.22,0,0,0,.75-2.62,4.07,4.07,0,0,0-.77-2.64,2.75,2.75,0,0,0-2.27-1,2.62,2.62,0,0,0-2.17,1,3.93,3.93,0,0,0-.78,2.54,4.27,4.27,0,0,0,.76,2.72,2.76,2.76,0,0,0,2.3,1A2.56,2.56,0,0,0,121.08,16.07Z"/><path class="cls-2" d="M129.74,15.14h-2.22V18.7h-2V8.2H130a5.61,5.61,0,0,1,.88.06,3,3,0,0,1,2,1.12,3.73,3.73,0,0,1,.68,2.29,4,4,0,0,1-.44,1.92,2.78,2.78,0,0,1-1.31,1.22l1.89,3.89h-2.24Zm-2.22-1.85h2.36a2.4,2.4,0,0,0,.67-.07,1.21,1.21,0,0,0,.78-.58,2.13,2.13,0,0,0,.23-1,2.06,2.06,0,0,0-.23-1,1.18,1.18,0,0,0-.78-.58,2.45,2.45,0,0,0-.67-.08h-2.36Z"/><path class="cls-2" d="M143.18,8.2l-3.58,6.23V18.7h-2V14.43L134,8.2h2.31l2.28,4,2.27-4Z"/></g><text class="cls-3" transform="translate(146.9 21.5)"> </text><g class="cls-1"><path class="cls-2" d="M163.27,18.7h-1.43V11.51l-3.39,7.19h-.7l-3.39-7.17V18.7h-1.44V8.2h1.39l3.79,7.91,3.79-7.91h1.38Z"/><path class="cls-2" d="M171.25,16.34h-4.32l-.77,2.36h-1.57L168,8.2h2.19l3.41,10.5H172Zm-.48-1.43-1.69-5.16-1.68,5.16Z"/><path class="cls-2" d="M182,9.64h-3.49V18.7h-1.53V9.64h-3.49V8.2H182Z"/><path class="cls-2" d="M192.15,15.59a4.32,4.32,0,0,1-1.3,2.16,4.57,4.57,0,0,1-3.3,1.17,5,5,0,0,1-2.09-.43,4.09,4.09,0,0,1-1.59-1.26,5.52,5.52,0,0,1-.89-1.74,6.44,6.44,0,0,1-.3-2,6,6,0,0,1,1.17-3.86,4.37,4.37,0,0,1,1.62-1.25A4.93,4.93,0,0,1,187.55,8a4.52,4.52,0,0,1,4.67,3.62l-1.53.22a3.32,3.32,0,0,0-.58-1.21,3,3,0,0,0-2.53-1.17,3.43,3.43,0,0,0-1.41.3,2.58,2.58,0,0,0-1.08.87,4.49,4.49,0,0,0-.8,2.84,6.82,6.82,0,0,0,.19,1.57,3.26,3.26,0,0,0,.61,1.27,2.58,2.58,0,0,0,1.12.89,3.64,3.64,0,0,0,1.49.3,3.06,3.06,0,0,0,1.36-.31,2.79,2.79,0,0,0,1.05-.88,3.71,3.71,0,0,0,.54-1.07Z"/><path class="cls-2" d="M202,8.2V18.7H200.5V14.17h-5.25V18.7h-1.53V8.2h1.53v4.52h5.25V8.2Z"/><path class="cls-2" d="M205.74,8.2V18.7h-1.53V8.2Z"/><path class="cls-2" d="M214.65,16V8.2h1.55V18.7h-1.55l-5.18-7.8v7.8h-1.54V8.2h1.54Z"/><path class="cls-2" d="M227.56,13.73a6.12,6.12,0,0,1-.32,2,4.89,4.89,0,0,1-.89,1.64,3.92,3.92,0,0,1-1.61,1.19,5.37,5.37,0,0,1-2.07.39,5,5,0,0,1-2.11-.44A4.19,4.19,0,0,1,219,17.2a6.12,6.12,0,0,1-1.15-3.75A5.81,5.81,0,0,1,219,9.67a4.23,4.23,0,0,1,1.61-1.26A5.1,5.1,0,0,1,222.67,8,4.55,4.55,0,0,1,226,9.16a4,4,0,0,1,1.27,2.07l-1.65.28a2.86,2.86,0,0,0-.65-1.08,2.69,2.69,0,0,0-.93-.65,3,3,0,0,0-1.17-.22,3.51,3.51,0,0,0-1.45.29,2.46,2.46,0,0,0-1.09.86,4.32,4.32,0,0,0-.76,2.74,4.42,4.42,0,0,0,.76,2.76,2.55,2.55,0,0,0,1.05.84,3.18,3.18,0,0,0,1.37.29,2.91,2.91,0,0,0,2.23-.88,3.12,3.12,0,0,0,.58-.92,3.91,3.91,0,0,0,.27-1.07h-2.32V13.25h4.08A4.06,4.06,0,0,1,227.56,13.73Z"/></g></g><g id="Group_594" data-name="Group 594"><g id="Group_5" data-name="Group 5" class="cls-4"><path id="Path_6" data-name="Path 6" class="cls-5" d="M1.5,24.77,9.07,15.6"/><path id="Path_7" data-name="Path 7" class="cls-5" d="M9.07,15.6l18.8,6"/><path id="Path_8" data-name="Path 8" class="cls-5" d="M27.87,21.57l6.27-10"/></g><g id="Group_4" data-name="Group 4"><path id="Path_3" data-name="Path 3" class="cls-5" d="M1.5,15.7l6.86-8"/><path id="Path_4" data-name="Path 4" class="cls-5" d="M8.36,7.7l11.19,18"/><path id="Path_5" data-name="Path 5" class="cls-5" d="M19.55,25.7,34.34,1.5"/></g></g></g></g></g></svg>