<svg id="Layer_1" data-name="Layer 1" xmlns="http://www.w3.org/2000/svg" viewBox="0 0 1893.85 386.93"><defs><style>.cls-1{fill:#fff;}.cls-2{fill:#7788b7;}</style></defs><title>TBE-MODEL</title><path class="cls-1" d="M216.35,274q-12.25-20.23-24.51-40.46c-4-6.52-8-13-12.19-19.81-15.14,17.51-30.12,34.8-45.06,52.13-11.18,13-22.22,26-33.47,38.93-6,6.91-16.65,10-24,7-8.4-3.49-13.9-9.51-14.5-19-.41-6.55,2.51-12,6.54-16.73C86,256.3,103,236.72,119.93,217.08q22.61-26.25,45.2-52.51c10.53-12.25,27.05-11.46,35.75,2.21,16,25.09,31.53,50.43,47.28,75.64q16,25.57,32,51.08A35.52,35.52,0,0,0,283,297a23.26,23.26,0,0,1,4.67,5.11c10.5,16.7,21.33,33.19,31.48,50.12,7.7,12,15,24.36,22.87,37.21a191.92,191.92,0,0,0,15.77-26.29c7-9.14,12.7-19.1,18.48-29a18.84,18.84,0,0,1,5.4-6.32c10.23-16.37,20.49-32.72,30.67-49.12q21.92-35.33,43.72-70.74,24.66-40,49.22-80.15c9.93-16.17,19.7-32.46,29.89-48.46,4.85-7.61,12.05-12.17,21.43-10.94,8.52,1.11,14.63,5.92,17.64,14.22,2.61,7.18.88,13.79-2.91,19.95-16.35,26.56-32.84,53-49.18,79.6s-32.73,53.5-49.13,80.24Q449.23,301.21,425.36,340a2.58,2.58,0,0,0-.13,1c.19,2.12-.82,3.82-1.89,5.53-5.71,9.15-11.69,18.14-16.91,27.59a8.77,8.77,0,0,1-4.13,4.15c-11.93,17.62-22.81,35.9-33.75,54.14-2.29,3.82-4.51,7.7-7,11.43-10.16,15.46-29.44,14.91-39.13-.81-17.23-28-34.66-55.79-52.07-83.64-6-9.56-11.37-19.49-18.3-28.44-3.49-2.47-5.51-6.09-7.65-9.65-8.24-13.67-16.59-27.27-25.51-40.52C217.57,278.74,215.72,276.82,216.35,274Z" transform="translate(-62.62 -68.17)"/><path class="cls-2" d="M402.29,378.24A366,366,0,0,1,425.22,341c7.12,3.32,14.64,5.4,22.18,7.51,3.72,1,5.78.07,7.78-3.14q24-38.43,48.2-76.71c9.81-15.58,19.54-31.22,29.51-46.71,5.53-8.58,13.91-11.79,23.74-9.66,8.22,1.78,14.47,9,15.88,18.46.69,4.66-.68,8.93-3.09,12.82q-13.9,22.44-28,44.77-30.32,48.29-60.65,96.56c-6.43,10.27-15.23,13.95-26.85,10.27C436.68,389.69,419.51,383.9,402.29,378.24Z" transform="translate(-62.62 -68.17)"/><path class="cls-2" d="M216.35,274c12.86,18.38,24.65,37.43,35.73,56.93l-44.31-13.8c-7.27-2.27-8.86-1.64-13.71,4.22q-35.29,42.65-70.7,85.2c-7.22,8.7-14.23,17.57-21.59,26.14-5.74,6.68-12.83,10.51-22.05,8.46-8.4-1.87-13.82-6.94-16.19-15.18-2.16-7.52-.11-14.16,4.75-20Q101,366.65,133.7,327.38c13.28-16,26.57-32,39.67-48.09,8.77-10.8,17.9-13.31,30.92-7.82C208.17,273.1,212,274.5,216.35,274Z" transform="translate(-62.62 -68.17)"/><path class="cls-2" d="M381.69,327.78C374.61,340.21,368.16,353,358.82,364a5.82,5.82,0,0,1-5.63,1c-11.91-3.51-24.05-6.32-35.19-12.06q-17.27-27.07-34.51-54.15A6.18,6.18,0,0,1,283,297c8.38,1.34,16.22,4.6,24.25,7.12C332.11,311.87,356.89,319.86,381.69,327.78Z" transform="translate(-62.62 -68.17)"/><path class="cls-1" d="M864.87,198.1h-43.4V175.3h112v22.8h-43.4V316.9h-25.2Z" transform="translate(-62.62 -68.17)"/><path class="cls-1" d="M950.67,175.3h55.2c21.4,0,43.4,9.8,43.4,35.6,0,16-10,26.6-24.6,31v.4c17.8,2,30.6,16,30.6,34.2,0,30.8-26.8,40.4-53.6,40.4h-51Zm25.2,57.6h23c16.8,0,25.2-7.2,25.2-17.8,0-12.2-8.4-18.2-27.4-18.2h-20.8Zm0,62.4h23.2c13,0,31-2.2,31-20.8,0-14.8-9.6-20-30-20h-24.2Z" transform="translate(-62.62 -68.17)"/><path class="cls-1" d="M1080.27,175.3h93.8v22.8h-68.6v34.8h65v22.8h-65v38.4h72.2v22.8h-97.4Z" transform="translate(-62.62 -68.17)"/><path class="cls-1" d="M1259.87,175.3h25l48,111h.4l48.4-111h24.4V316.9h-16.8V198.1h-.4l-50.8,118.8h-10.2l-50.8-118.8h-.4V316.9h-16.8Z" transform="translate(-62.62 -68.17)"/><path class="cls-1" d="M1433.07,246.1c0-42.8,31-74.4,74-74.4s74,31.6,74,74.4-31,74.4-74,74.4S1433.07,288.9,1433.07,246.1Zm130,0c0-32.6-22.8-58.8-56-58.8s-56,26.2-56,58.8,22.8,58.8,56,58.8S1563.07,278.7,1563.07,246.1Z" transform="translate(-62.62 -68.17)"/><path class="cls-1" d="M1605.47,175.3h54.4c27.8,0,69.4,18.6,69.4,70.8s-41.6,70.8-69.4,70.8h-54.4Zm16.8,126h32c32.4,0,57-16.4,57-55.2s-24.6-55.2-57-55.2h-32Z" transform="translate(-62.62 -68.17)"/><path class="cls-1" d="M1756.27,175.3h89v15.6h-72.2v44.4h67.4v15.6h-67.4v50.4h75.8v15.6h-92.6Z" transform="translate(-62.62 -68.17)"/><path class="cls-1" d="M1874.87,175.3h16.8v126h64.8v15.6h-81.6Z" transform="translate(-62.62 -68.17)"/></svg>