<svg xmlns="http://www.w3.org/2000/svg" viewBox="0 0 62 32"><defs><style>.cls-1{fill:#fff;fill-opacity:0;}.cls-2{fill:none;stroke:#2151e8;stroke-linecap:round;stroke-linejoin:round;stroke-width:2px;}</style></defs><title>surface</title><g id="Layer_2" data-name="Layer 2"><g id="Layer_1-2" data-name="Layer 1"><g id="Group_598" data-name="Group 598"><path id="Rectangle_2675" data-name="Rectangle 2675" class="cls-1" d="M0,0H62V32H0Z"/><g id="Group_605" data-name="Group 605"><path id="Path_719" data-name="Path 719" class="cls-2" d="M19.65,20.83l7.75-4.58"/><path id="Path_720" data-name="Path 720" class="cls-2" d="M12,25.25l7.75-4.48"/><path id="Path_721" data-name="Path 721" class="cls-2" d="M27.49,25.25l7.66-4.53"/><path id="Path_722" data-name="Path 722" class="cls-2" d="M19.93,29.61l7.56-4.36"/><path id="Path_723" data-name="Path 723" class="cls-2" d="M42.89,16.25l7.75,4.47"/><path id="Path_724" data-name="Path 724" class="cls-2" d="M27.4,7.31l7.75,4.47"/><path id="Path_725" data-name="Path 725" class="cls-2" d="M35.15,20.72l7.74,4.47"/><path id="Path_726" data-name="Path 726" class="cls-2" d="M12,25.25l7.65,4.42"/><path id="Path_727" data-name="Path 727" class="cls-2" d="M27.4,16.25l7.75,4.47"/><path id="Path_728" data-name="Path 728" class="cls-2" d="M19.75,11.83l7.74,4.47"/><path id="Path_729" data-name="Path 729" class="cls-2" d="M35.24,2.89,43,7.36"/><path id="Path_730" data-name="Path 730" class="cls-2" d="M35.15,11.78l7.74,4.47"/><path id="Path_731" data-name="Path 731" class="cls-2" d="M35.15,20.72l7.74-4.47"/><path id="Path_732" data-name="Path 732" class="cls-2" d="M19.65,11.78,27.4,7.31"/><path id="Path_733" data-name="Path 733" class="cls-2" d="M27.49,16.3l7.75-4.47"/><path id="Path_734" data-name="Path 734" class="cls-2" d="M42.89,25.19l7.75-4.47"/><path id="Path_735" data-name="Path 735" class="cls-2" d="M35.15,2.83v9"/><path id="Path_736" data-name="Path 736" class="cls-2" d="M43,7.36V16.3"/><path id="Path_737" data-name="Path 737" class="cls-2" d="M19.65,20.83l7.75,4.36"/></g></g></g></g></svg>